<?xml version="1.0" encoding="utf-8"?>
<!-- Generator: Adobe Illustrator 26.0.0, SVG Export Plug-In . SVG Version: 6.00 Build 0)  -->
<svg version="1.1" id="Layer_1" xmlns="http://www.w3.org/2000/svg" xmlns:xlink="http://www.w3.org/1999/xlink" x="0px" y="0px"
	 viewBox="0 0 120 36" style="enable-background:new 0 0 120 36;" xml:space="preserve">
<style type="text/css">
	.st0{fill-rule:evenodd;clip-rule:evenodd;fill:#F08080;}
</style>
<path class="st0" d="M85.67,19.05c-0.12,0-0.25,0.08-0.38,0.25c-0.14,0.17-0.27,0.36-0.4,0.57c-0.13,0.21-0.25,0.42-0.35,0.64
	c-0.1,0.21-0.18,0.36-0.22,0.45c0.42-0.1,0.76-0.25,1-0.47c0.24-0.21,0.41-0.42,0.5-0.64c0.09-0.21,0.12-0.4,0.08-0.56
	C85.86,19.13,85.78,19.05,85.67,19.05 M93.01,21.33c0.26-0.04,0.25-0.44-0.04-0.45c-0.02,0-0.03,0-0.05,0
	c-0.15,0.03-0.29,0.05-0.44,0.08l0,0c-0.04,0-0.08,0.02-0.11,0.05c-0.18,0.15-0.06,0.43,0.17,0.4
	C92.7,21.38,92.85,21.36,93.01,21.33z M94.36,20.92l-0.18-0.42L94.36,20.92z M94.79,20.7c0.1-0.06,0.14-0.17,0.1-0.28
	c-0.05-0.13-0.21-0.19-0.33-0.12c-0.12,0.07-0.26,0.14-0.38,0.2c-0.08,0.04-0.14,0.12-0.14,0.21c0,0.16,0.17,0.27,0.32,0.21
	C94.51,20.85,94.65,20.78,94.79,20.7z M95.7,17.28c-0.2-0.2-0.53,0.08-0.33,0.31c0.1,0.1,0.16,0.18,0.22,0.32
	c0.11,0.26,0.51,0.12,0.42-0.17C95.95,17.59,95.83,17.41,95.7,17.28z M94.26,18.33c-0.03,0.3,0.4,0.36,0.45,0.07
	c0.02-0.14,0.04-0.28,0.08-0.42c0.08-0.25-0.28-0.42-0.42-0.17c-0.01,0.01-0.01,0.03-0.02,0.05C94.32,18,94.29,18.16,94.26,18.33z
	 M94.93,19.67l0.21-0.4L94.93,19.67z M95.42,19.84c0.08,0.02,0.15-0.01,0.2-0.05c0.08,0.02,0.17,0,0.23-0.09
	c0.09-0.13,0.17-0.32,0.22-0.47c0.09-0.25-0.28-0.44-0.42-0.17c-0.05,0.12-0.08,0.22-0.15,0.33c-0.11-0.02-0.26-0.07-0.36-0.13
	c-0.24-0.13-0.47,0.22-0.23,0.39C95.05,19.74,95.26,19.81,95.42,19.84z M96.89,19.53l-0.26-0.38L96.89,19.53z M97.27,19.2
	c0.2-0.22-0.11-0.53-0.33-0.31c-0.1,0.1-0.19,0.19-0.3,0.27c-0.24,0.18,0.01,0.54,0.26,0.38C97.02,19.44,97.16,19.32,97.27,19.2z
	 M67.51,19.36c-0.42,0-0.77,0.27-0.77,0.6c0,0.33,0.34,0.6,0.77,0.6c0.42,0,0.77-0.27,0.77-0.6C68.27,19.63,67.93,19.36,67.51,19.36
	z M66.23,21.68c-0.42,0-0.77,0.27-0.77,0.6c0,0.33,0.34,0.6,0.77,0.6c0.42,0,0.77-0.27,0.77-0.6
	C66.99,21.95,66.65,21.68,66.23,21.68z M54.29,24.37c0.56,0,1.09-0.11,1.61-0.33c0.52-0.22,1-0.51,1.46-0.87s0.88-0.77,1.27-1.22
	c0.39-0.45,0.75-0.91,1.06-1.36l0.01,0.01c0.09-0.12,0.18-0.25,0.27-0.38c0.46-0.65,0.86-1.3,1.19-1.95
	c-0.21-0.11-0.34-0.26-0.4-0.47c-0.06-0.2-0.06-0.4-0.01-0.6c0.05-0.2,0.17-0.38,0.34-0.52c0.17-0.15,0.39-0.22,0.65-0.22
	c0.22,0,0.37,0.04,0.47,0.11c0.09,0.08,0.14,0.17,0.16,0.29c0.01,0.12-0.01,0.25-0.05,0.4c-0.04,0.15-0.09,0.29-0.13,0.42
	c0.42,0.05,0.74,0.17,0.94,0.34c0.2,0.17,0.33,0.39,0.38,0.65c0.05,0.26,0.03,0.55-0.05,0.87c-0.08,0.32-0.19,0.64-0.32,0.96
	c-0.13,0.33-0.27,0.64-0.42,0.94c-0.15,0.3-0.28,0.57-0.38,0.81c-0.1,0.24-0.16,0.43-0.18,0.57c-0.02,0.14,0.04,0.21,0.17,0.21
	c0.16,0,0.35-0.1,0.57-0.29c0.22-0.19,0.42-0.41,0.62-0.65c0.16-0.2,0.3-0.39,0.43-0.56c0.02-0.16,0.06-0.33,0.1-0.49
	c0.15-0.56,0.39-1.06,0.74-1.53c0.34-0.46,0.76-0.84,1.27-1.12s1.06-0.39,1.68-0.33c0.08,0.01,0.16,0.02,0.24,0.04
	c0.54,0.07,1.01,0.33,1.31,0.83c0.16,0.24,0.27,0.5,0.32,0.8c0.07,0.37,0.07,0.76,0,1.17c-0.07,0.63-0.28,1.16-0.56,1.6
	c0.22-0.05,0.41-0.11,0.58-0.18c0.19-0.08,0.38-0.21,0.56-0.41c0.12-0.13,0.23-0.27,0.33-0.42l0.04-0.05
	c0.02-0.11,0.04-0.22,0.07-0.34c0.13-0.54,0.34-1.04,0.62-1.49c0.28-0.46,0.63-0.84,1.05-1.14c0.41-0.3,0.87-0.45,1.37-0.44
	c0.61,0.01,1.05,0.35,1.32,1.03l0.15-0.28l0.57,0.31c-0.05,0.07-0.13,0.16-0.24,0.29c-0.1,0.13-0.21,0.26-0.31,0.39
	c-0.1,0.13-0.19,0.25-0.27,0.35c-0.08,0.1-0.11,0.16-0.11,0.16l-0.28-0.18c0.01-0.03,0.03-0.07,0.05-0.11
	c0.02-0.03,0.04-0.08,0.07-0.13c0.02-0.05,0.05-0.11,0.08-0.16l-0.02,0.02c-0.02-0.05-0.05-0.13-0.08-0.21
	c-0.03-0.09-0.07-0.17-0.11-0.24c-0.04-0.08-0.09-0.14-0.15-0.19c-0.05-0.05-0.12-0.07-0.2-0.07c-0.11,0.01-0.25,0.13-0.43,0.35
	c-0.18,0.22-0.36,0.5-0.55,0.83c-0.19,0.33-0.36,0.69-0.51,1.07c-0.16,0.38-0.27,0.74-0.33,1.06c-0.07,0.33-0.07,0.6-0.02,0.82
	c0.05,0.22,0.19,0.33,0.42,0.33c0.26,0,0.53-0.08,0.81-0.24s0.54-0.35,0.8-0.58c0.26-0.23,0.5-0.47,0.72-0.73
	c0.06-0.07,0.12-0.14,0.17-0.2c0.19-0.39,0.37-0.76,0.55-1.14c0.35-0.73,0.71-1.46,1.06-2.19c0.35-0.73,0.72-1.47,1.09-2.22
	c0.37-0.75,0.76-1.53,1.16-2.34h2.16c-0.41,0.82-0.82,1.63-1.23,2.44c-0.4,0.81-0.81,1.63-1.21,2.44c0.25-0.22,0.51-0.39,0.78-0.51
	c0.27-0.13,0.55-0.18,0.83-0.16c0.44,0.02,0.76,0.11,0.99,0.27c0.22,0.16,0.36,0.36,0.42,0.6c0.06,0.24,0.06,0.51,0,0.81
	c-0.06,0.3-0.15,0.6-0.28,0.91c-0.12,0.31-0.26,0.61-0.42,0.91c-0.15,0.29-0.29,0.55-0.41,0.78c-0.12,0.22-0.21,0.4-0.27,0.54
	c-0.06,0.14-0.06,0.2,0.01,0.19c0.16-0.01,0.35-0.12,0.57-0.32c0.22-0.2,0.43-0.42,0.62-0.65c0.17-0.21,0.33-0.4,0.46-0.58
	c0.02-0.12,0.04-0.25,0.08-0.38c0.13-0.54,0.34-1.04,0.62-1.5c0.28-0.46,0.63-0.84,1.04-1.14c0.41-0.3,0.86-0.45,1.35-0.45
	c0.37,0,0.67,0.09,0.9,0.27c0.23,0.18,0.38,0.4,0.47,0.66c0.08,0.26,0.09,0.54,0.03,0.85c-0.06,0.3-0.19,0.59-0.4,0.87
	c-0.21,0.27-0.49,0.51-0.85,0.7c-0.36,0.2-0.8,0.31-1.31,0.34c-0.08,0.23-0.14,0.45-0.18,0.66c-0.04,0.21-0.06,0.39-0.05,0.55
	c0.01,0.16,0.05,0.29,0.12,0.39c0.07,0.1,0.18,0.15,0.34,0.15c0.26,0,0.53-0.08,0.81-0.23c0.28-0.15,0.55-0.34,0.81-0.57
	c0.26-0.23,0.5-0.48,0.72-0.74c0.14-0.17,0.27-0.33,0.38-0.48c0.11-0.51,0.27-1.04,0.46-1.59c0.2-0.57,0.43-1.15,0.67-1.73
	c0.24-0.58,0.49-1.14,0.74-1.66h-0.87v-0.74h1.23c0.23-0.47,0.43-0.86,0.6-1.2c0.17-0.33,0.29-0.57,0.36-0.7h2.17
	c-0.07,0.12-0.19,0.35-0.36,0.69c-0.17,0.34-0.38,0.75-0.62,1.23l0.72-0.02v0.74h-1.09c-0.23,0.46-0.46,0.94-0.7,1.44
	c-0.24,0.5-0.47,1-0.69,1.49c-0.22,0.49-0.42,0.96-0.6,1.4c-0.18,0.44-0.32,0.83-0.42,1.17c-0.1,0.34-0.15,0.6-0.16,0.8
	c-0.01,0.2,0.05,0.29,0.18,0.29c0.16,0,0.35-0.1,0.57-0.29c0.22-0.19,0.43-0.41,0.63-0.65c0.2-0.25,0.38-0.47,0.52-0.68
	c0.15-0.21,0.23-0.33,0.25-0.36l0.03,0.02c0.03-0.01,0.06-0.02,0.09-0.02c0.15,0,0.3,0,0.45-0.01c0.16,0,0.27,0.15,0.22,0.3
	c-0.03,0.09-0.12,0.15-0.21,0.15l-0.01,0c-0.17,0.23-0.36,0.5-0.58,0.8c-0.23,0.32-0.48,0.61-0.74,0.89
	c-0.27,0.28-0.55,0.51-0.86,0.7c-0.31,0.19-0.63,0.29-0.96,0.29c-0.4,0-0.7-0.12-0.88-0.36c-0.19-0.24-0.29-0.56-0.3-0.96l0-0.04
	c-0.19,0.19-0.39,0.37-0.6,0.53c-0.32,0.25-0.66,0.45-1.03,0.6c-0.37,0.16-0.74,0.23-1.14,0.23c-0.59,0-1.04-0.15-1.35-0.46
	c-0.29-0.28-0.48-0.63-0.57-1.05c-0.15,0.18-0.3,0.35-0.46,0.52c-0.27,0.28-0.55,0.51-0.86,0.7c-0.3,0.19-0.63,0.29-0.96,0.29
	c-0.37,0-0.64-0.08-0.82-0.24c-0.17-0.16-0.28-0.36-0.32-0.61c-0.04-0.25-0.02-0.54,0.05-0.86c0.07-0.32,0.17-0.65,0.29-0.99
	c0.13-0.34,0.26-0.67,0.41-1c0.15-0.33,0.28-0.62,0.39-0.87c0.11-0.25,0.2-0.45,0.25-0.61c0.05-0.16,0.04-0.24-0.04-0.25
	c-0.12-0.01-0.26,0.04-0.43,0.16c-0.17,0.12-0.35,0.28-0.53,0.47c-0.19,0.2-0.37,0.42-0.56,0.66c-0.19,0.24-0.37,0.49-0.54,0.73
	c-0.17,0.24-0.32,0.46-0.46,0.66c-0.14,0.2-0.24,0.36-0.32,0.48l-1.05,2.25c-0.53,0.07-0.91,0.03-1.14-0.11
	c-0.22-0.14-0.36-0.3-0.42-0.48c-0.02-0.06-0.03-0.12-0.03-0.18c-0.3,0.22-0.62,0.4-0.95,0.54c-0.36,0.16-0.74,0.23-1.14,0.23
	c-0.59,0-1.04-0.15-1.35-0.45c-0.31-0.3-0.51-0.68-0.59-1.14l0-0.01l-0.11,0.11c-0.11,0.11-0.26,0.22-0.43,0.31
	c-0.17,0.09-0.4,0.17-0.67,0.22c-0.26,0.05-0.57,0.07-0.94,0.05l-0.03,0.03c-0.26,0.25-0.57,0.44-0.89,0.58
	c-0.05,0.02-0.09,0.04-0.14,0.07c-0.38,0.17-0.78,0.26-1.22,0.27c-0.65,0.01-1.15-0.14-1.5-0.46c-0.32-0.29-0.53-0.66-0.63-1.09
	c-0.14,0.18-0.3,0.35-0.45,0.51c-0.27,0.28-0.55,0.51-0.86,0.7c-0.31,0.19-0.63,0.29-0.96,0.29c-0.45,0-0.77-0.08-0.97-0.24
	c-0.2-0.16-0.32-0.38-0.36-0.65c-0.04-0.27-0.01-0.58,0.09-0.92c0.1-0.34,0.22-0.69,0.38-1.05c0.15-0.36,0.32-0.71,0.49-1.06
	c0.17-0.35,0.32-0.66,0.45-0.92c0.13-0.27,0.21-0.48,0.24-0.65c0.04-0.17,0-0.25-0.12-0.25c-0.35,0.69-0.77,1.39-1.26,2.1
	c-0.16,0.23-0.32,0.46-0.48,0.69c-0.36,0.56-0.77,1.14-1.21,1.71c-0.47,0.62-0.99,1.17-1.55,1.67c-0.56,0.5-1.16,0.9-1.81,1.22
	c-0.64,0.32-1.33,0.47-2.06,0.47c-0.83,0-1.5-0.21-2.01-0.63c-0.51-0.42-0.88-0.97-1.12-1.64c-0.23-0.68-0.35-1.44-0.33-2.3
	c0.01-0.86,0.12-1.74,0.33-2.65c0.21-0.9,0.51-1.79,0.89-2.65c0.38-0.86,0.83-1.63,1.33-2.3c0.51-0.68,1.06-1.22,1.67-1.64
	c0.61-0.42,1.24-0.63,1.9-0.63c0.36,0,0.69,0.07,0.99,0.21c0.3,0.14,0.57,0.34,0.81,0.59c0.24,0.25,0.45,0.54,0.63,0.88
	c0.18,0.34,0.33,0.7,0.47,1.08L59.52,14l1.11,0.9c-0.13,0.12-0.33,0.3-0.6,0.54c-0.27,0.24-0.54,0.48-0.82,0.72
	c-0.32,0.28-0.65,0.58-1.01,0.9l-0.52-0.46c0.09-0.12,0.18-0.25,0.28-0.38c0.09-0.12,0.18-0.25,0.28-0.4
	c0.1-0.15,0.21-0.3,0.33-0.47c-0.23-0.58-0.54-0.97-0.92-1.19c-0.39-0.22-0.78-0.32-1.18-0.29c-0.42,0.02-0.84,0.19-1.25,0.51
	c-0.41,0.32-0.8,0.72-1.16,1.22c-0.36,0.5-0.69,1.06-0.98,1.69c-0.29,0.63-0.52,1.27-0.69,1.92c-0.17,0.65-0.28,1.28-0.32,1.9
	c-0.04,0.62,0.01,1.17,0.16,1.66c0.14,0.48,0.38,0.87,0.72,1.17C53.25,24.23,53.71,24.37,54.29,24.37z"/>
<path class="st0" d="M27.18,23.86c0.11,0,0.24-0.07,0.38-0.22c0.15-0.15,0.3-0.34,0.46-0.57c0.16-0.23,0.32-0.5,0.48-0.78
	c0.16-0.29,0.32-0.57,0.46-0.86c0.14-0.28,0.27-0.54,0.38-0.78c0.11-0.24,0.2-0.43,0.27-0.57c-0.05-0.12-0.12-0.27-0.2-0.44
	c-0.08-0.17-0.2-0.27-0.35-0.28c-0.15,0-0.32,0.11-0.5,0.33c-0.18,0.22-0.35,0.5-0.52,0.83c-0.17,0.34-0.33,0.7-0.47,1.09
	c-0.15,0.39-0.26,0.75-0.35,1.09c-0.09,0.34-0.14,0.62-0.16,0.84C27.04,23.75,27.08,23.86,27.18,23.86 M38.96,29.63
	c0.34-0.01,0.65-0.19,0.95-0.52c0.29-0.34,0.56-0.73,0.78-1.18c0.23-0.45,0.42-0.91,0.58-1.36c0.16-0.46,0.28-0.82,0.37-1.08
	c-0.08,0.01-0.15,0.02-0.23,0.02c-0.08,0-0.16,0-0.25,0c-0.59,0-1.09,0.1-1.51,0.3c-0.42,0.2-0.76,0.46-1.02,0.77
	c-0.26,0.31-0.45,0.65-0.56,1c-0.11,0.36-0.15,0.69-0.11,1c0.03,0.31,0.13,0.57,0.3,0.77C38.44,29.54,38.67,29.64,38.96,29.63z
	 M48.95,20.74c0.17-0.31-0.25-0.62-0.5-0.34c-0.01,0.02-0.02,0.03-0.03,0.05c-0.09,0.16-0.19,0.33-0.3,0.48
	c-0.2,0.26,0.11,0.62,0.41,0.44c0.03-0.02,0.05-0.04,0.08-0.07C48.73,21.12,48.85,20.93,48.95,20.74z M50.01,17.15
	c0.05-0.35-0.46-0.49-0.59-0.14c-0.01,0.02-0.01,0.04-0.02,0.06c-0.02,0.19-0.05,0.39-0.09,0.58c-0.03,0.15,0.05,0.29,0.19,0.34
	c0.18,0.07,0.37-0.04,0.41-0.23C49.95,17.56,49.98,17.36,50.01,17.15z M49.66,15.79l-0.41-0.45L49.66,15.79L49.66,15.79L49.66,15.79
	z M49.25,15.34c-0.09,0.08-0.12,0.21-0.08,0.32c0.05,0.13,0.16,0.2,0.28,0.21l0.01,0.06c0.03,0.35,0.55,0.38,0.61,0.01
	c0-0.02,0-0.04,0-0.06c-0.02-0.19-0.05-0.37-0.17-0.52l-0.02-0.02l-0.02-0.02l-0.03-0.02l-0.03-0.02l-0.03-0.02l-0.03-0.02
	l-0.04-0.01l-0.04-0.01l-0.04-0.01l-0.04,0l-0.04,0L49.5,15.2l-0.03,0.01l-0.03,0.01l-0.03,0.01C49.34,15.27,49.3,15.3,49.25,15.34z
	 M48.5,17.22c-0.02,0.35,0.48,0.45,0.59,0.11c0.01-0.03,0.01-0.05,0.01-0.08c0-0.17,0.05-0.36,0.09-0.52
	c0.1-0.31-0.32-0.55-0.54-0.27c-0.02,0.03-0.03,0.05-0.04,0.09C48.56,16.76,48.51,17.01,48.5,17.22z M49.59,19.14
	c0.19-0.06,0.31-0.29,0.15-0.49c-0.01-0.02-0.03-0.03-0.04-0.04c-0.13-0.1-0.25-0.23-0.34-0.37c-0.04-0.07-0.1-0.11-0.17-0.13
	c-0.27-0.08-0.49,0.22-0.34,0.45c0.06,0.1,0.13,0.18,0.2,0.27c-0.05,0.18-0.11,0.37-0.17,0.55c-0.12,0.37,0.39,0.57,0.56,0.23
	C49.49,19.46,49.54,19.29,49.59,19.14z M50.66,18.96c-0.37-0.03-0.47,0.49-0.11,0.6c0.01,0,0.03,0.01,0.04,0.01
	C51.67,19.67,52.19,19.12,50.66,18.96z M9.03,10.8c1.07,0.22,2.95,0.26,3.16-2.13c-0.09,0.02-0.2,0.05-0.33,0.1
	c-0.41,0.15-0.9,0.43-1.37,0.76C9.93,9.94,9.4,10.43,9.03,10.8z M7.14,8.59c1.08-1.89,1.24-3.22,1-3.99
	C8.04,4.26,7.86,4.08,7.67,4.06C7.49,4.04,7.27,4.19,7.09,4.51C6.69,5.21,6.55,6.53,7.14,8.59z M7.44,13.8
	c1.12-0.1,0.79-1.33,0.5-2.03c-0.18,0.1-0.36,0.17-0.53,0.22c-0.17,0.05-0.34,0.07-0.5,0.06c-0.09,0.19-0.2,0.36-0.32,0.48
	c-0.02,0.07-0.03,0.15-0.05,0.23c-0.05,0.26-0.06,0.52,0.01,0.72c0.05,0.14,0.15,0.25,0.33,0.3C7.02,13.81,7.21,13.82,7.44,13.8z
	 M3.96,13.98c-0.22,0.28,0.15,0.65,0.44,0.42c0.02-0.02,0.03-0.03,0.04-0.05c0.12-0.15,0.24-0.3,0.38-0.44
	c0.24-0.25-0.07-0.65-0.38-0.47c-0.02,0.02-0.04,0.03-0.06,0.05C4.23,13.66,4.09,13.81,3.96,13.98z M3.32,15.34l0.61,0.04
	L3.32,15.34z M3.28,15.82c-0.02,0.39,0.55,0.45,0.61,0.05c0.01-0.17,0.02-0.42,0.05-0.58c0.06-0.35-0.43-0.51-0.58-0.18
	c-0.01,0.02-0.02,0.04-0.02,0.06C3.31,15.35,3.29,15.64,3.28,15.82z M4.1,17.04l0.08-0.6L4.1,17.04z M4.78,17.04
	c0.32-0.03,0.38-0.5,0.05-0.6c-0.04-0.01-0.07-0.01-0.11-0.01c-0.17,0.02-0.37,0.03-0.53,0.01c-0.13-0.02-0.25,0.05-0.31,0.16
	c-0.1,0.19,0.02,0.42,0.23,0.44C4.32,17.07,4.56,17.06,4.78,17.04z M4.15,15.55c-0.36,0.06-0.34,0.57,0.03,0.6c0.02,0,0.04,0,0.07,0
	c0.14-0.02,0.28-0.02,0.42,0.04c0.13,0.06,0.28,0.03,0.37-0.09c0.12-0.16,0.07-0.37-0.11-0.46C4.68,15.52,4.42,15.51,4.15,15.55z
	 M2.52,16.75c-0.16,0.29,0.21,0.6,0.47,0.37c0.03-0.02,0.04-0.05,0.06-0.08c0.08-0.16,0.18-0.3,0.3-0.43
	c0.24-0.26-0.09-0.66-0.4-0.46c-0.02,0.01-0.03,0.02-0.05,0.04C2.76,16.35,2.62,16.54,2.52,16.75z M2.1,18.66
	c0.02,0.39,0.59,0.4,0.61,0c0-0.2,0-0.38,0.03-0.57c0.04-0.33-0.41-0.48-0.57-0.17c-0.02,0.03-0.02,0.06-0.03,0.1
	C2.1,18.23,2.09,18.44,2.1,18.66z M2.7,20.55c0.24,0.3,0.69,0,0.51-0.33c-0.11-0.17-0.2-0.3-0.28-0.49
	c-0.14-0.34-0.64-0.19-0.58,0.17c0,0.02,0.01,0.04,0.02,0.06C2.45,20.16,2.57,20.36,2.7,20.55z M5.86,21.26l-0.44-0.42L5.86,21.26z
	 M6.17,20.5c0-0.39-0.57-0.42-0.61-0.02l0,0.01c0,0.13-0.05,0.25-0.13,0.35c-0.07,0.07-0.1,0.18-0.08,0.28
	c0.06,0.23,0.34,0.31,0.51,0.14C6.05,21.05,6.17,20.78,6.17,20.5z M4.42,20.83c-0.01,0.03-0.02,0.06-0.03,0.09
	c-0.13-0.02-0.25-0.06-0.38-0.11c-0.33-0.13-0.58,0.32-0.29,0.53c0.02,0.01,0.04,0.03,0.07,0.04c0.21,0.08,0.43,0.14,0.66,0.16
	c0.2,0.03,0.33-0.13,0.34-0.29c0.05-0.02,0.11-0.06,0.15-0.12c0.1-0.18,0.19-0.31,0.33-0.46c0.22-0.24-0.05-0.61-0.36-0.48
	c-0.04,0.02-0.07,0.04-0.1,0.07C4.66,20.44,4.52,20.63,4.42,20.83z M4.5,22.86c0.18,0.33,0.67,0.11,0.56-0.24
	c-0.01-0.01-0.01-0.03-0.02-0.04c-0.08-0.16-0.15-0.32-0.19-0.49c-0.08-0.34-0.6-0.3-0.6,0.08c0,0.02,0,0.04,0.01,0.06
	C4.31,22.45,4.39,22.64,4.5,22.86z M5.77,24.32c0.3,0.24,0.67-0.17,0.41-0.45c-0.01-0.01-0.02-0.02-0.03-0.03
	C6,23.73,5.86,23.6,5.72,23.46c-0.25-0.25-0.67,0.07-0.47,0.38c0.01,0.02,0.02,0.03,0.04,0.05C5.44,24.04,5.6,24.18,5.77,24.32z
	 M7.33,10.56c0.23-0.02,0.45-0.02,0.6-0.01c0.06-0.07,0.14-0.15,0.23-0.24c0.12-0.17,0.21-0.34,0.25-0.5
	C8.45,9.64,8.45,9.52,8.4,9.47C8.35,9.42,8.23,9.42,8.07,9.46C7.91,9.5,7.74,9.59,7.57,9.71L7.42,9.84
	C7.41,10,7.38,10.26,7.33,10.56z M5.76,11.91c0.06-0.18,0.12-0.34,0.18-0.48c-0.13-0.28-0.14-0.61-0.05-0.96
	c0.04-0.15,0.1-0.3,0.18-0.46c-0.8,0.01-1.99,0.22-2.69,1.29c-0.14,0.22-0.2,0.37-0.18,0.47c0.01,0.04,0.05,0.09,0.13,0.13
	c0.15,0.08,0.36,0.13,0.61,0.16C4.59,12.13,5.38,12.04,5.76,11.91z M8.98,11.79c0.38,1.11,0.6,2.79-1.45,2.98
	c-0.36,0.03-0.66,0.01-0.91-0.06c-0.54-0.15-0.85-0.49-0.99-0.92c-0.06-0.18-0.09-0.37-0.1-0.56c-0.16,0.01-0.28-0.1-0.31-0.24
	c-0.45,0.06-0.96,0.08-1.41,0.03c-0.36-0.04-0.7-0.13-0.97-0.27c-0.34-0.19-0.57-0.46-0.62-0.86c-0.04-0.32,0.05-0.69,0.33-1.12
	c1-1.53,2.71-1.75,3.71-1.72C5.53,6.59,5.73,4.93,6.24,4.03C6.63,3.34,7.21,3.04,7.77,3.1c0.56,0.06,1.06,0.47,1.3,1.22
	C9.35,5.19,9.24,6.6,8.31,8.46c0.3,0.01,0.57,0.11,0.77,0.32C9.2,8.9,9.29,9.04,9.34,9.2c0.19-0.16,0.38-0.31,0.59-0.46
	c0.54-0.39,1.12-0.71,1.6-0.89c0.27-0.1,0.53-0.16,0.76-0.17c0.33-0.01,0.59,0.09,0.77,0.33c0.04,0.06,0.07,0.12,0.1,0.18l0.03,0.18
	C13.09,12.05,10.47,12.08,8.98,11.79z M31.77,23.74c-0.22,0.21-0.46,0.39-0.7,0.54c-0.3,0.19-0.63,0.29-0.96,0.29
	c-0.41,0-0.7-0.14-0.86-0.42c-0.16-0.28-0.24-0.64-0.24-1.08c-0.13,0.21-0.27,0.4-0.42,0.58c-0.15,0.18-0.3,0.34-0.47,0.48
	c-0.16,0.14-0.33,0.25-0.51,0.33c-0.17,0.08-0.36,0.11-0.56,0.11c-0.38,0-0.69-0.09-0.92-0.27c-0.23-0.18-0.41-0.42-0.52-0.71
	c-0.05-0.13-0.09-0.27-0.12-0.41l-0.02,0.03c-0.27,0.39-0.57,0.78-0.88,1.18c-0.32,0.4-0.63,0.77-0.96,1.1
	c-0.32,0.33-0.64,0.6-0.96,0.82c-0.32,0.21-0.6,0.32-0.87,0.32c-0.52,0.01-0.91-0.1-1.17-0.32c-0.26-0.22-0.41-0.53-0.47-0.91
	c-0.05-0.38-0.03-0.83,0.08-1.35c0.11-0.52,0.27-1.07,0.48-1.66c0.21-0.59,0.46-1.19,0.75-1.81c0.29-0.62,0.59-1.23,0.89-1.82
	c0.31-0.59,0.6-1.16,0.87-1.7c0.28-0.54,0.52-1.02,0.72-1.43c0.2-0.41,0.35-0.75,0.44-1c0.09-0.26,0.1-0.41,0.01-0.45
	c-0.13-0.07-0.3,0-0.51,0.2c-0.21,0.2-0.44,0.47-0.7,0.83c-0.26,0.36-0.54,0.79-0.84,1.28c-0.3,0.5-0.6,1.01-0.9,1.54
	c-0.3,0.53-0.59,1.07-0.87,1.61c-0.28,0.54-0.54,1.04-0.78,1.5c-0.23,0.46-0.44,0.86-0.61,1.2c-0.17,0.34-0.3,0.57-0.38,0.7h-2.63
	c0.07-0.14,0.2-0.48,0.42-1.01c0.21-0.53,0.46-1.16,0.74-1.89c0.28-0.72,0.56-1.49,0.86-2.3c0.29-0.81,0.55-1.55,0.78-2.24
	c0.22-0.69,0.39-1.26,0.51-1.72c0.11-0.46,0.13-0.7,0.04-0.74c-0.1-0.03-0.23,0.05-0.4,0.25c-0.17,0.2-0.35,0.45-0.56,0.78
	c-0.2,0.32-0.41,0.68-0.63,1.08c-0.22,0.4-0.42,0.77-0.6,1.13c-0.19,0.35-0.35,0.67-0.48,0.94c-0.14,0.27-0.22,0.45-0.25,0.52
	c-0.24,0.71-0.51,1.42-0.81,2.12c-0.3,0.71-0.62,1.39-0.97,2.03c-0.35,0.65-0.72,1.25-1.12,1.81c-0.4,0.56-0.82,1.05-1.27,1.46
	c-0.45,0.41-0.93,0.74-1.44,0.98c-0.51,0.24-1.04,0.36-1.59,0.36c-0.75,0-1.36-0.18-1.83-0.53c-0.47-0.35-0.81-0.8-1.03-1.33
	c-0.22-0.53-0.31-1.11-0.28-1.72c0.03-0.62,0.18-1.19,0.44-1.72c0.26-0.53,0.63-0.96,1.11-1.31c0.48-0.34,1.06-0.51,1.73-0.5
	c0.28,0.01,0.55,0.07,0.8,0.18c0.25,0.11,0.47,0.27,0.65,0.48c0.18,0.21,0.32,0.48,0.41,0.79c0.09,0.32,0.12,0.69,0.07,1.13h-0.74
	c0.02-0.61-0.08-1.05-0.29-1.33c-0.22-0.28-0.48-0.42-0.78-0.42c-0.32,0-0.59,0.1-0.81,0.31c-0.22,0.21-0.4,0.46-0.52,0.76
	c-0.13,0.3-0.2,0.63-0.23,0.99c-0.03,0.36,0,0.69,0.09,0.99c0.09,0.3,0.23,0.55,0.44,0.76c0.21,0.21,0.48,0.31,0.82,0.31
	c0.49,0,0.97-0.21,1.44-0.62c0.47-0.41,0.92-0.96,1.34-1.63c0.42-0.67,0.83-1.43,1.21-2.27c0.38-0.84,0.73-1.69,1.05-2.55
	c0.32-0.85,0.61-1.67,0.86-2.46c0.25-0.78,0.46-1.45,0.64-1.99c-0.88,0.01-1.67,0.09-2.35,0.24c-0.69,0.15-1.27,0.42-1.74,0.81
	c-0.47,0.39-0.84,0.94-1.09,1.65c-0.25,0.71-0.38,1.62-0.38,2.75H8.51c0-1.29,0.21-2.33,0.62-3.13c0.41-0.8,0.97-1.43,1.67-1.88
	c0.7-0.45,1.52-0.76,2.45-0.92c0.93-0.16,1.93-0.24,2.98-0.24l1.86-0.02c-0.09,0.56-0.22,1.19-0.39,1.9
	c0.11-0.16,0.25-0.36,0.42-0.59c0.17-0.23,0.36-0.44,0.56-0.65c0.2-0.2,0.42-0.37,0.65-0.49c0.23-0.13,0.47-0.17,0.71-0.14
	c0.4,0.07,0.68,0.29,0.82,0.66c0.14,0.38,0.2,0.84,0.16,1.38c-0.03,0.54-0.13,1.13-0.29,1.76c-0.16,0.63-0.34,1.24-0.54,1.83
	c-0.2,0.59-0.39,1.11-0.57,1.58c-0.19,0.46-0.32,0.79-0.39,0.99c0.07-0.15,0.18-0.39,0.34-0.73c0.16-0.33,0.36-0.72,0.59-1.17
	c0.23-0.45,0.49-0.92,0.78-1.43c0.29-0.51,0.59-1.01,0.91-1.51c0.32-0.5,0.65-0.97,1-1.41c0.34-0.44,0.69-0.82,1.03-1.14
	c0.34-0.32,0.68-0.54,1-0.68c0.33-0.14,0.64-0.15,0.93-0.04c0.4,0.15,0.65,0.44,0.73,0.87s0.05,0.95-0.09,1.54
	c-0.14,0.6-0.36,1.26-0.66,1.98c-0.3,0.72-0.63,1.44-0.99,2.16c-0.36,0.72-0.72,1.43-1.08,2.12c-0.36,0.69-0.66,1.31-0.92,1.85
	c-0.25,0.54-0.42,0.99-0.52,1.35c-0.1,0.35-0.06,0.55,0.11,0.6c0.13,0.04,0.3-0.01,0.52-0.16s0.45-0.34,0.71-0.59
	c0.26-0.25,0.52-0.52,0.78-0.83c0.27-0.31,0.51-0.62,0.74-0.91c0.12-0.16,0.23-0.31,0.34-0.45c0.02-0.14,0.05-0.28,0.09-0.42
	c0.1-0.39,0.24-0.77,0.42-1.14c0.19-0.37,0.41-0.7,0.66-0.98c0.26-0.28,0.55-0.51,0.87-0.69c0.33-0.17,0.68-0.26,1.05-0.26
	c0.57,0.01,0.99,0.32,1.27,0.92l0.34-0.92h2.32c-0.03,0.07-0.12,0.24-0.26,0.51c-0.14,0.28-0.31,0.6-0.49,0.97
	c-0.19,0.37-0.37,0.76-0.56,1.18c-0.19,0.41-0.35,0.8-0.47,1.14c-0.12,0.35-0.2,0.64-0.22,0.87c-0.02,0.23,0.04,0.34,0.2,0.34
	c0.16,0,0.35-0.1,0.57-0.29c0.22-0.19,0.42-0.41,0.62-0.65c0.2-0.25,0.37-0.47,0.51-0.68l0.13-0.18l1.4-3.22c0.03,0,0.13,0,0.29,0
	c0.16,0,0.35,0,0.57,0c0.22,0,0.44,0,0.66,0c0.22,0,0.41,0,0.56,0c-0.07,0.15-0.13,0.31-0.2,0.46c-0.07,0.15-0.14,0.3-0.21,0.46
	c0.28-0.28,0.58-0.51,0.9-0.68c0.32-0.17,0.64-0.24,0.98-0.22c0.44,0.02,0.77,0.11,0.99,0.27c0.22,0.16,0.36,0.36,0.42,0.6
	c0.06,0.24,0.06,0.51,0,0.81c-0.06,0.3-0.15,0.6-0.27,0.91c-0.12,0.31-0.26,0.61-0.42,0.91c-0.16,0.29-0.3,0.55-0.42,0.78
	c-0.12,0.22-0.21,0.4-0.26,0.54c-0.05,0.14-0.05,0.2,0.02,0.19c0.16-0.01,0.35-0.12,0.56-0.32c0.21-0.2,0.42-0.42,0.62-0.65
	c0.2-0.23,0.38-0.45,0.52-0.65l0.04-0.05c0.09-0.43,0.2-0.85,0.32-1.26c0.14-0.46,0.28-0.87,0.42-1.24
	c0.14-0.37,0.25-0.64,0.33-0.82l2.3-0.02c-0.02,0.07-0.1,0.24-0.25,0.51c-0.14,0.28-0.3,0.6-0.49,0.97
	c-0.19,0.37-0.37,0.76-0.56,1.18c-0.19,0.41-0.35,0.8-0.47,1.14c-0.13,0.35-0.2,0.64-0.23,0.87c-0.03,0.23,0.04,0.34,0.19,0.34
	c0.16,0,0.35-0.09,0.56-0.28c0.21-0.19,0.42-0.39,0.61-0.63c0.2-0.23,0.37-0.46,0.51-0.67s0.24-0.35,0.27-0.4
	c0.17-0.63,0.34-1.21,0.49-1.73c0.15-0.52,0.31-0.95,0.46-1.29l2.3-0.02c-0.14,0.35-0.29,0.75-0.45,1.19
	c-0.16,0.45-0.32,0.92-0.49,1.43c-0.17,0.51-0.35,1.04-0.55,1.58c-0.2,0.55-0.4,1.1-0.6,1.64c0.51-0.27,0.96-0.65,1.35-1.13
	c0.39-0.48,0.84-1.06,1.35-1.75l0.23,0.17c0.17,0.05,0.26,0.03,0.44,0c0.38-0.03,0.47,0.5,0.11,0.6c-0.15,0.04-0.3,0.05-0.45,0.03
	c-0.23,0.32-0.44,0.61-0.65,0.88c-0.28,0.37-0.56,0.7-0.83,0.98s-0.57,0.52-0.88,0.72c-0.31,0.2-0.67,0.35-1.07,0.47
	c-0.12,0.29-0.27,0.63-0.44,1c-0.17,0.37-0.37,0.75-0.58,1.13s-0.45,0.75-0.7,1.12c-0.26,0.36-0.54,0.69-0.84,0.97
	s-0.63,0.51-0.97,0.68c-0.34,0.17-0.71,0.25-1.1,0.25c-0.48,0-0.86-0.14-1.14-0.42c-0.28-0.28-0.47-0.63-0.55-1.05
	c-0.08-0.42-0.06-0.87,0.07-1.35c0.13-0.48,0.35-0.93,0.68-1.34c0.33-0.41,0.75-0.76,1.27-1.03c0.52-0.27,1.15-0.41,1.88-0.41
	c0.13,0,0.25,0,0.37,0c0.11,0,0.23-0.01,0.35-0.02c0.08-0.23,0.15-0.46,0.21-0.69c0.07-0.23,0.13-0.46,0.2-0.7
	c-0.28,0.33-0.6,0.61-0.94,0.85c-0.34,0.24-0.71,0.36-1.09,0.36c-0.38,0-0.66-0.13-0.83-0.38c-0.17-0.26-0.26-0.59-0.27-0.99l0-0.04
	c-0.12,0.15-0.25,0.29-0.38,0.43c-0.27,0.28-0.55,0.51-0.86,0.7c-0.31,0.19-0.63,0.29-0.96,0.29c-0.37,0-0.64-0.08-0.82-0.24
	c-0.17-0.16-0.28-0.36-0.32-0.61c-0.04-0.25-0.02-0.54,0.05-0.86c0.07-0.32,0.17-0.65,0.29-0.99c0.13-0.34,0.26-0.67,0.41-1
	c0.15-0.33,0.28-0.62,0.39-0.87c0.11-0.25,0.2-0.45,0.25-0.61c0.05-0.16,0.04-0.24-0.04-0.25c-0.19-0.01-0.42,0.11-0.69,0.38
	c-0.28,0.26-0.56,0.57-0.84,0.93c-0.28,0.36-0.54,0.72-0.78,1.08c-0.24,0.36-0.41,0.63-0.52,0.8c-0.15,0.37-0.31,0.74-0.47,1.12
	c-0.16,0.38-0.32,0.75-0.47,1.14c-0.26,0.04-0.48,0.06-0.67,0.04c-0.19-0.02-0.34-0.05-0.47-0.1c-0.13-0.05-0.22-0.11-0.29-0.2
	c-0.07-0.08-0.11-0.17-0.15-0.27C31.79,23.96,31.77,23.86,31.77,23.74z"/>
<path class="st0" d="M90.26,26.69c0.17-0.31-0.25-0.62-0.5-0.34c-0.01,0.02-0.02,0.03-0.03,0.05c-0.09,0.16-0.19,0.33-0.3,0.48
	c-0.2,0.26,0.11,0.62,0.41,0.44c0.03-0.02,0.05-0.04,0.08-0.07C90.04,27.07,90.16,26.88,90.26,26.69 M91.32,23.11
	c0.05-0.35-0.46-0.49-0.59-0.14c-0.01,0.02-0.01,0.04-0.02,0.06c-0.02,0.19-0.05,0.39-0.09,0.58c-0.03,0.15,0.05,0.29,0.19,0.34
	c0.18,0.07,0.37-0.04,0.41-0.23C91.26,23.52,91.3,23.31,91.32,23.11z M90.98,21.74l-0.41-0.45L90.98,21.74L90.98,21.74L90.98,21.74z
	 M90.57,21.29c-0.09,0.08-0.12,0.21-0.08,0.32c0.05,0.13,0.16,0.2,0.28,0.21l0.01,0.06c0.03,0.35,0.55,0.38,0.61,0.01
	c0-0.02,0-0.04,0-0.06c-0.02-0.19-0.05-0.37-0.17-0.52l-0.02-0.02l-0.02-0.02l-0.03-0.02l-0.03-0.02l-0.03-0.02l-0.03-0.02L91,21.17
	l-0.04-0.01l-0.04-0.01l-0.04,0l-0.04,0l-0.04,0.01l-0.03,0.01l-0.03,0.01l-0.03,0.01C90.66,21.22,90.61,21.25,90.57,21.29z
	 M89.81,23.18c-0.02,0.35,0.48,0.45,0.59,0.11c0.01-0.03,0.01-0.05,0.01-0.08c0-0.17,0.05-0.36,0.09-0.52
	c0.1-0.31-0.32-0.55-0.54-0.27c-0.02,0.03-0.03,0.05-0.04,0.09C89.87,22.71,89.82,22.96,89.81,23.18z M90.9,25.09
	c0.19-0.06,0.31-0.29,0.15-0.49c-0.01-0.02-0.03-0.03-0.04-0.04c-0.13-0.1-0.25-0.23-0.34-0.37c-0.04-0.07-0.1-0.11-0.17-0.13
	c-0.27-0.08-0.49,0.22-0.34,0.45c0.06,0.1,0.13,0.18,0.2,0.27c-0.05,0.18-0.11,0.37-0.17,0.55c-0.12,0.37,0.39,0.57,0.56,0.23
	C90.81,25.42,90.86,25.24,90.9,25.09z M92.58,25.52c0.07-0.01,0.14-0.04,0.19-0.09c0.2-0.2,0.04-0.54-0.24-0.52
	c-0.18,0.02-0.37,0.02-0.55,0c-0.37-0.03-0.47,0.49-0.11,0.6c0.01,0,0.03,0.01,0.04,0.01C92.14,25.55,92.36,25.54,92.58,25.52z
	 M94.42,24.95c0.32-0.16,0.15-0.65-0.21-0.57c-0.02,0.01-0.04,0.01-0.06,0.02c-0.17,0.09-0.35,0.16-0.53,0.23
	c-0.34,0.13-0.21,0.65,0.17,0.58c0.02,0,0.03-0.01,0.04-0.01C94.04,25.13,94.23,25.05,94.42,24.95z M96,23.93
	c0.07-0.05,0.11-0.14,0.12-0.22c0.01-0.26-0.29-0.41-0.49-0.25c-0.15,0.12-0.31,0.24-0.47,0.35c-0.26,0.18-0.1,0.61,0.24,0.55
	c0.04-0.01,0.07-0.02,0.11-0.05C95.67,24.18,95.84,24.06,96,23.93z M103.35,11.29c0.46-0.1,0.92-0.16,1.4-0.18
	c-0.37,0.64-0.84,1.08-1.18,1.34c-0.04-0.58-0.12-0.99-0.16-1.17L103.35,11.29z M101.93,11.73c0.28-0.11,0.57-0.21,0.86-0.3
	c0.05,0.22,0.15,0.78,0.17,1.56c0,0.03,0,0.05,0,0.08c0.01,0.5-0.01,1.08-0.09,1.71c-0.01,0.03-0.01,0.06-0.01,0.1
	c-0.12,0.83-0.35,1.74-0.77,2.66c-0.01,0.01-0.02,0.03-0.02,0.05c-0.15,0.33-0.33,0.67-0.54,1c-0.01,0.01-0.02,0.02-0.02,0.04
	c-0.14,0.23-0.3,0.46-0.47,0.68c-0.26-0.21-0.51-0.43-0.75-0.63c2.3-2.66,1.69-6.84,1.69-6.85c0-0.03-0.01-0.07-0.03-0.1
	L101.93,11.73z M100.67,12.37c0.22-0.14,0.45-0.26,0.68-0.38c0.07,0.57,0.38,4.03-1.55,6.26c-0.19-0.17-0.37-0.34-0.54-0.5
	c1.52-2.06,1.51-5.13,1.51-5.14C100.78,12.52,100.74,12.43,100.67,12.37z M100.38,12.55c0.03-0.02,0.06-0.04,0.09-0.06
	C100.45,12.51,100.41,12.53,100.38,12.55z M100.2,12.68c0.04-0.03,0.08-0.05,0.11-0.08C100.27,12.63,100.23,12.66,100.2,12.68z
	 M97.45,15.85c0.65-1.25,1.58-2.32,2.7-3.13l-0.01,0.01c-0.01,0.53-0.15,2.91-1.33,4.57c-0.82-0.82-1.28-1.38-1.28-1.38
	C97.5,15.89,97.48,15.86,97.45,15.85z M96.66,17.94c0.01-0.04,0.02-0.08,0.03-0.12C96.68,17.86,96.67,17.9,96.66,17.94z
	 M96.65,22.27c-0.16-0.68-0.25-1.39-0.25-2.11l0,0.11c0.28,0.37,0.85,1.09,1.73,1.96C97.51,22.3,96.78,22.28,96.65,22.27z
	 M100.58,27.83c-0.21-0.14-0.42-0.28-0.62-0.44c0.01-0.03,0.02-0.06,0.02-0.1c0-0.01,0.01-2.08,1.2-2.53l0.09,0.06
	C100.64,25.63,100.57,27.1,100.58,27.83z M103.6,29.01c-0.88-0.16-1.71-0.46-2.47-0.87c0.03,0.02,0.07,0.04,0.1,0.05
	c0-0.06-0.15-2.2,0.55-3.01c0.16,0.11,0.32,0.21,0.49,0.32c-0.53,0.8-0.63,2.21-0.65,2.89c0.21,0.09,0.42,0.18,0.64,0.26
	c0-0.45,0.03-2.09,0.55-2.81c0.09,0.05,0.17,0.1,0.26,0.16c-0.44,0.72-0.48,2.1-0.47,2.77c0.21,0.07,0.43,0.12,0.64,0.17
	c-0.02-0.53-0.04-2.11,0.37-2.64l0.14,0.08C103.33,27.52,103.45,28.47,103.6,29.01z M105.67,29.13c-0.04,0-0.08,0.01-0.13,0.01
	C105.58,29.14,105.62,29.14,105.67,29.13z M106.56,29.03c-0.29,0.05-0.58,0.08-0.88,0.1c0.27-0.09,0.51-0.2,0.72-0.31
	C106.45,28.88,106.51,28.96,106.56,29.03z M106.76,28.99c-0.05,0.01-0.1,0.02-0.15,0.03C106.66,29.01,106.71,29,106.76,28.99z
	 M106.97,28.95c-0.05,0.01-0.1,0.02-0.15,0.03C106.87,28.97,106.92,28.96,106.97,28.95z M107.19,28.9c-0.05,0.01-0.1,0.03-0.16,0.04
	C107.09,28.92,107.14,28.91,107.19,28.9z M108.79,28.33c-0.04,0.02-0.08,0.04-0.12,0.06C108.71,28.36,108.75,28.34,108.79,28.33z
	 M108.98,28.23c-0.04,0.02-0.08,0.04-0.12,0.06C108.9,28.27,108.94,28.25,108.98,28.23z M109.17,28.13
	c-0.04,0.02-0.08,0.04-0.12,0.06C109.09,28.17,109.13,28.15,109.17,28.13z M112.85,24.37c-0.02,0.04-0.04,0.08-0.06,0.12
	C112.81,24.45,112.83,24.41,112.85,24.37z M112.95,24.17c-0.02,0.04-0.04,0.08-0.06,0.12C112.91,24.25,112.93,24.21,112.95,24.17z
	 M113.04,23.98c-0.02,0.04-0.03,0.08-0.05,0.11C113,24.05,113.02,24.02,113.04,23.98z M113.07,23.92L113.07,23.92L113.07,23.92
	L113.07,23.92z M113.56,22.51c-0.07,0.26-0.15,0.51-0.24,0.76c-0.03-0.01-0.07-0.01-0.1-0.01c-0.86,0.08-1.12,0.05-1.21,0.02
	c0.06-0.16,0.11-0.32,0.15-0.47C112.45,22.8,112.92,22.74,113.56,22.51z M113.61,22.31c-0.01,0.05-0.02,0.1-0.04,0.15
	C113.59,22.41,113.6,22.36,113.61,22.31z M113.84,20.88c-0.02,0.31-0.06,0.61-0.12,0.9c-0.03,0-0.07,0.01-0.1,0.02
	c-0.63,0.26-1.09,0.34-1.36,0.37c0.01-0.23,0.01-0.43,0-0.57C112.79,21.38,113.33,21.14,113.84,20.88z M113.84,19.34
	c0.02,0.26,0.03,0.52,0.03,0.78l0,0.05c-0.04,0-0.07,0.01-0.11,0.03c-0.95,0.48-2,0.93-2.96,1.26c-0.4,0.14-0.79,0.26-1.15,0.35
	c-0.01,0-0.03,0.01-0.04,0.01c-0.39,0.1-0.75,0.16-1.05,0.18c-0.42,0.03-0.64-0.03-0.77-0.1c0.08-0.17,0.15-0.35,0.24-0.54
	c0.24,0.03,0.5,0.01,0.72-0.01l0.08-0.01c1.01-0.06,1.94-0.36,2.84-0.78C112.41,20.23,113.12,19.8,113.84,19.34z M113.82,19.12
	c0.01,0.06,0.01,0.11,0.02,0.17C113.83,19.23,113.82,19.18,113.82,19.12z M113.79,18.92c0.01,0.04,0.01,0.08,0.01,0.12
	C113.8,19,113.8,18.96,113.79,18.92z M113.76,18.69c0.01,0.04,0.01,0.08,0.02,0.12C113.77,18.77,113.77,18.73,113.76,18.69z
	 M109.43,12.26c0.04,0.02,0.08,0.04,0.11,0.07C109.5,12.31,109.46,12.28,109.43,12.26z M109.25,12.16c0.04,0.02,0.08,0.04,0.11,0.06
	C109.32,12.2,109.28,12.18,109.25,12.16z M109.06,12.06c0.04,0.02,0.07,0.04,0.11,0.06L109.06,12.06z M107.67,11.49
	c0.05,0.01,0.09,0.03,0.14,0.04C107.76,11.52,107.72,11.5,107.67,11.49z M107.45,11.42c0.05,0.01,0.1,0.03,0.15,0.04
	C107.55,11.45,107.5,11.44,107.45,11.42z M107.25,11.37c0.04,0.01,0.09,0.02,0.13,0.04C107.34,11.39,107.3,11.38,107.25,11.37z
	 M105.42,12.19c-0.06-0.26-0.13-0.48-0.18-0.65c-0.57,0.91-1.31,1.45-1.64,1.66c0,0.34-0.01,0.71-0.04,1.11
	c0.49-0.31,1.24-0.93,1.8-2.04C105.38,12.24,105.4,12.21,105.42,12.19z M102.85,17.37c0.66-0.06,1.9-0.37,2.84-1.75
	c0.05-0.99,0-1.82-0.09-2.48c-0.78,1.2-1.74,1.76-2.13,1.95C103.35,15.81,103.16,16.59,102.85,17.37z M102.31,18.51
	c0.63,0.01,1.88-0.2,3.27-1.64l0.02-0.15c-1.16,1.16-2.51,1.29-3.04,1.3C102.48,18.19,102.4,18.35,102.31,18.51z M101.68,19.51
	c0.75,0.07,2.19,0.1,3.54-0.44c0.09-0.42,0.17-0.81,0.23-1.2c-1.58,1.32-2.96,1.32-3.5,1.25C101.86,19.26,101.77,19.39,101.68,19.51
	z M104.1,27.95c0.95-0.02,1.5-0.31,1.78-0.54c-0.54-0.23-1.06-0.48-1.55-0.73C104.16,27.16,104.1,27.59,104.1,27.95z M104.19,28.76
	c0.89-0.03,1.6-0.31,2.09-0.6c0.02-0.01,0.04-0.03,0.06-0.04c0.19-0.12,0.34-0.23,0.46-0.33c-0.1-0.04-0.19-0.08-0.29-0.11
	c-0.3,0.32-1.01,0.88-2.37,0.91C104.17,28.65,104.18,28.71,104.19,28.76z M108.54,23.42c0.44-0.28,0.65-0.61,0.75-0.86
	c-0.25,0.05-0.48,0.08-0.69,0.09c-0.55,0.04-0.87-0.05-1.09-0.16c-0.1,0.21-0.19,0.38-0.26,0.51
	C107.68,23.16,108.11,23.3,108.54,23.42z M109.7,23.68c0.6-0.4,0.73-1.02,0.74-1.42c-0.15,0.04-0.29,0.09-0.43,0.12
	c-0.05,0.29-0.21,0.78-0.67,1.22C109.45,23.64,109.57,23.66,109.7,23.68z M110.84,23.84c0.24-0.18,0.41-0.41,0.53-0.65
	c0.01-0.02,0.02-0.04,0.03-0.06c0.1-0.21,0.16-0.44,0.2-0.65c0-0.01,0-0.02,0-0.04c0-0.02,0.01-0.04,0.01-0.06
	c0.03-0.2,0.04-0.39,0.03-0.55c-0.19,0.07-0.38,0.14-0.57,0.21c0.02,0.4-0.03,1.15-0.55,1.75
	C110.62,23.82,110.73,23.83,110.84,23.84z M112.26,23.9c-0.21-0.03-0.37-0.07-0.49-0.13c-0.03,0.04-0.06,0.09-0.09,0.13
	C111.87,23.9,112.07,23.9,112.26,23.9z M109.05,32.22c-0.02-0.27-0.4-0.3-0.45-0.02c0,0.02,0,0.03,0,0.05
	c0.01,0.15,0.02,0.3,0.02,0.45c0.02,0.29,0.44,0.29,0.46,0C109.07,32.54,109.05,32.37,109.05,32.22z M108.87,30.38
	c-0.05-0.3-0.49-0.23-0.45,0.07c0.02,0.15,0.04,0.3,0.06,0.45c0.01,0.12,0.11,0.2,0.23,0.2c0.14,0,0.24-0.12,0.23-0.25
	C108.91,30.69,108.89,30.53,108.87,30.38z M108.47,28.57c-0.01-0.03-0.02-0.05-0.04-0.08c0.06-0.02,0.11-0.05,0.17-0.07
	c-0.38-0.12-0.75-0.24-1.11-0.37c-0.12,0.11-0.3,0.27-0.54,0.44c0.1,0.12,0.2,0.27,0.28,0.41c0.27-0.07,0.53-0.15,0.79-0.24
	c0,0.02,0,0.04,0.01,0.05c0.04,0.14,0.08,0.28,0.12,0.43c0.06,0.25,0.45,0.23,0.45-0.07c0-0.02,0-0.03-0.01-0.05
	C108.55,28.86,108.51,28.71,108.47,28.57z M103.79,21.28l-0.31,0.24l0.4-0.18L103.79,21.28z M105.71,19.74l-0.83,0.67
	c-0.04,0.15-0.08,0.29-0.12,0.44c-0.01,0.03-0.01,0.06-0.01,0.09l0.74-0.34C105.57,20.31,105.64,20.02,105.71,19.74z M107.76,18.1
	l-0.8,0.65c-0.12,0.46-0.27,0.93-0.44,1.4l0.81-0.37C107.5,19.21,107.64,18.65,107.76,18.1z M109.38,16.8l-0.8,0.65
	c-0.1,0.51-0.22,1.01-0.36,1.49c-0.05,0.17-0.1,0.34-0.15,0.5l0.78-0.35c0.15-0.51,0.27-1.04,0.37-1.57c0.27,0.25,0.62,0.61,0.88,1
	l0.58-0.27C110.27,17.61,109.68,17.06,109.38,16.8z M110.19,16.14l-0.5,0.4c0.44,0.4,0.99,0.94,1.38,1.52l0.58-0.27
	C111.24,17.17,110.66,16.58,110.19,16.14z M111.13,15.39l-0.5,0.4c0.52,0.51,1.07,1.14,1.44,1.83l0.58-0.25
	C112.26,16.61,111.68,15.93,111.13,15.39z M94.81,26.29l-1.61,0.65c0,0-0.72,0.38-0.79,0.1c-0.07-0.27,0.88-0.69,0.88-0.69l4.13-2
	l-0.02-0.04l0.09,0l1.34-0.65c-0.89,0.04-1.69,0-1.69,0c-0.01,0-0.02,0-0.03,0c-0.07-0.17-0.14-0.35-0.2-0.52
	c-0.08,0.06-0.18,0.07-0.28,0.04c-0.22-0.08-0.27-0.35-0.11-0.51c0.06-0.06,0.13-0.12,0.19-0.18l0-0.02
	c0.04,0.15,0.08,0.3,0.13,0.44c0.4,0.01,1.27,0.01,1.88-0.14c0.21,0.2,0.44,0.4,0.69,0.61l0.06-0.03l0.57-0.26
	c-2.25-1.87-3.29-3.46-3.3-3.47c-0.07-0.1-0.19-0.15-0.31-0.14c0.03-0.52,0.11-1.02,0.23-1.51c0.25,0.32,1.83,2.34,4.53,4.4
	l0.51-0.41c-2.93-2.21-4.56-4.41-4.57-4.42c-0.08-0.1-0.21-0.15-0.33-0.12c0.1-0.33,0.22-0.65,0.35-0.97
	c0.49,0.57,2.51,2.81,5.43,4.79l0.52-0.42c-0.32-0.21-0.63-0.43-0.93-0.65c0.52,0.02,1.19,0,1.89-0.12l1.93-1.57
	c0.09-0.49,0.16-0.95,0.22-1.4c0.01-0.02,0.01-0.05,0.01-0.07c0.05-0.43,0.09-0.85,0.11-1.23c0.01-0.03,0.01-0.06,0-0.08
	c0.12-2.42-0.31-3.92-0.55-4.58c0.5,0.04,0.98,0.12,1.46,0.23c-0.04,0.07-0.06,0.15-0.04,0.24c0,0.01,0.61,2.63,0.05,5.88l0.73-0.6
	c0.35-2.74-0.05-4.91-0.14-5.35c0.42,0.14,0.83,0.31,1.22,0.51c-0.08,0.06-0.12,0.16-0.12,0.26c0.03,0.58,0.04,1.23,0.01,1.92
	l0,0.01c-0.02,0.46-0.05,0.93-0.1,1.4c0,0.01,0,0.02,0,0.03l-0.01,0.08c-0.02,0.16-0.04,0.31-0.06,0.47l0.78-0.63l-0.06-0.05
	c0.02-0.23,0.04-0.46,0.06-0.69c0.13,0.1,0.29,0.23,0.46,0.37l0.23-0.19l0.28-0.21c-0.4-0.35-0.75-0.6-0.93-0.73
	c0.02-0.62,0.01-1.2-0.01-1.74c0.74,0.45,1.42,1.02,2,1.67l3.71-2.82l-0.22-0.54c0,0,0.13-0.65,0.69-0.35
	c0.56,0.29,0.92,1.2,0.92,1.2s-0.05,0.63-0.24,0.68c-0.19,0.05-0.53,0.16-0.77-0.32l-0.11-0.08l-0.3,0.19l-3.17,2.67
	c0.54,0.73,0.98,1.55,1.29,2.43l3.41-1.47l-0.03-0.66c0,0,0.49-0.41,0.73,0.02c0.24,0.43,0.35,0.95,0.37,1.04
	c0.02,0.09,0.2,0.71-0.18,0.7c-0.39-0.01-0.61,0.04-0.75-0.39l-0.05-0.17l-2.01,1.04l-5.91,2.71c-0.02,0.07-0.02,0.15,0.01,0.22
	c0.07,0.16,0.25,0.24,0.42,0.18c0.01,0,2.13-0.85,3.5-1.5c0.02-0.01,0.03-0.01,0.04-0.02c0.32-0.16,0.6-0.3,0.8-0.41
	c0.02,0.1,0.04,0.19,0.05,0.29c-0.78,0.51-1.56,0.99-2.36,1.36c-0.83,0.39-1.68,0.66-2.61,0.72l-0.08,0.01
	c-0.13,0.01-0.29,0.02-0.43,0.02c0.08-0.21,0.16-0.44,0.24-0.67l-0.81,0.37c-0.05,0.14-0.11,0.28-0.16,0.42
	c0,0.01-0.01,0.02-0.01,0.03l0,0.01c-0.15,0.36-0.29,0.69-0.42,0.96c-0.01,0.01-0.01,0.02-0.02,0.04c-0.18,0.39-0.33,0.68-0.44,0.87
	c-0.19-0.08-0.39-0.16-0.58-0.25c0.33-0.57,0.62-1.14,0.85-1.71l-0.88,0.4c-0.17,0.35-0.35,0.69-0.55,1.04
	c-0.27-0.13-0.54-0.27-0.8-0.42l-0.71,0.32c0.48,0.28,0.97,0.54,1.48,0.79c0.01,0.01,0.02,0.01,0.03,0.01
	c0.38,0.18,0.76,0.35,1.16,0.51c0.01,0.01,0.03,0.01,0.04,0.02c0.58,0.23,1.17,0.43,1.78,0.59c0.01,0.01,0.03,0.01,0.05,0.01
	c1.35,0.36,2.78,0.54,4.24,0.44c-0.36,0.67-0.81,1.3-1.32,1.85c-0.05-0.07-0.12-0.13-0.22-0.14c-3.39-0.57-6.26-1.98-8.5-3.51
	l-0.68,0.31c2.33,1.63,5.34,3.18,8.93,3.81l0.04-0.03c-0.51,0.48-1.07,0.89-1.67,1.24c-0.04-0.05-0.09-0.08-0.15-0.1
	c-0.89-0.26-1.77-0.57-2.63-0.93c-0.02-0.01-0.03-0.01-0.05-0.02c-0.77-0.32-1.5-0.66-2.17-1.02c-0.02-0.01-0.03-0.02-0.05-0.03
	l-0.01-0.01c-0.17-0.09-0.35-0.19-0.51-0.28c-0.02-0.01-0.04-0.02-0.06-0.03c-0.26-0.14-0.5-0.29-0.74-0.44
	c-0.02-0.02-0.05-0.04-0.08-0.05c-0.32-0.2-0.62-0.39-0.91-0.59c-0.02-0.02-0.05-0.04-0.08-0.05c-0.15-0.1-0.3-0.21-0.44-0.31
	c-0.02-0.02-0.05-0.04-0.08-0.06c-0.22-0.16-0.43-0.31-0.63-0.47l-0.7,0.54c0.1-0.01,0.2-0.03,0.3-0.05
	c0.08,0.06,0.16,0.12,0.24,0.19c-0.92,0.59-1.17,1.89-1.23,2.55c-0.42-0.38-0.8-0.8-1.14-1.26l-3.3,2.58c0,0-1.65,0.69-0.08,0.79
	l1.24-0.02c0.41-0.01,0.38,0.29,0.09,0.3l-1.77,0.05c0,0-0.86-0.08-0.68-0.52c0.18-0.44,0.9-1.07,0.9-1.07l3.23-2.65
	c-0.03-0.05-0.06-0.09-0.09-0.14L94.81,26.29z"/>
</svg>
